<?xml version="1.0" encoding="utf-8" standalone="no"?>
<!DOCTYPE svg PUBLIC "-//W3C//DTD SVG 1.1//EN"
  "http://www.w3.org/Graphics/SVG/1.1/DTD/svg11.dtd">
<!-- Created with matplotlib (https://matplotlib.org/) -->
<svg height="1440pt" version="1.1" viewBox="0 0 2880 1440" width="2880pt" xmlns="http://www.w3.org/2000/svg" xmlns:xlink="http://www.w3.org/1999/xlink">
 <defs>
  <style type="text/css">
*{stroke-linecap:butt;stroke-linejoin:round;}
  </style>
 </defs>
 <g id="figure_1">
  <g id="patch_1">
   <path d="M 0 1440 
L 2880 1440 
L 2880 0 
L 0 0 
z
" style="fill:#ffffff;"/>
  </g>
  <g id="axes_1">
   <g id="patch_2">
    <path d="M 360 1260 
L 2592 1260 
L 2592 172.8 
L 360 172.8 
z
" style="fill:#ffffff;"/>
   </g>
   <g id="PathCollection_1">
    <defs>
     <path d="M 0 3 
C 0.795609 3 1.55874 2.683901 2.12132 2.12132 
C 2.683901 1.55874 3 0.795609 3 0 
C 3 -0.795609 2.683901 -1.55874 2.12132 -2.12132 
C 1.55874 -2.683901 0.795609 -3 0 -3 
C -0.795609 -3 -1.55874 -2.683901 -2.12132 -2.12132 
C -2.683901 -1.55874 -3 -0.795609 -3 0 
C -3 0.795609 -2.683901 1.55874 -2.12132 2.12132 
C -1.55874 2.683901 -0.795609 3 0 3 
z
" id="m53abc0e553" style="stroke:#1f77b4;"/>
    </defs>
    <g clip-path="url(#pc0be26f028)">
     <use style="fill:#1f77b4;stroke:#1f77b4;" x="461.591576" xlink:href="#m53abc0e553" y="222.245071"/>
     <use style="fill:#1f77b4;stroke:#1f77b4;" x="471.786635" xlink:href="#m53abc0e553" y="256.933489"/>
     <use style="fill:#1f77b4;stroke:#1f77b4;" x="481.981695" xlink:href="#m53abc0e553" y="274.335573"/>
     <use style="fill:#1f77b4;stroke:#1f77b4;" x="492.176754" xlink:href="#m53abc0e553" y="290.823259"/>
     <use style="fill:#1f77b4;stroke:#1f77b4;" x="502.371814" xlink:href="#m53abc0e553" y="309.82817"/>
     <use style="fill:#1f77b4;stroke:#1f77b4;" x="512.566874" xlink:href="#m53abc0e553" y="332.741943"/>
     <use style="fill:#1f77b4;stroke:#1f77b4;" x="522.761933" xlink:href="#m53abc0e553" y="344.928367"/>
     <use style="fill:#1f77b4;stroke:#1f77b4;" x="532.956993" xlink:href="#m53abc0e553" y="364.624666"/>
     <use style="fill:#1f77b4;stroke:#1f77b4;" x="543.152052" xlink:href="#m53abc0e553" y="379.20546"/>
     <use style="fill:#1f77b4;stroke:#1f77b4;" x="553.347112" xlink:href="#m53abc0e553" y="397.316356"/>
     <use style="fill:#1f77b4;stroke:#1f77b4;" x="563.542171" xlink:href="#m53abc0e553" y="423.481918"/>
     <use style="fill:#1f77b4;stroke:#1f77b4;" x="573.737231" xlink:href="#m53abc0e553" y="437.307396"/>
     <use style="fill:#1f77b4;stroke:#1f77b4;" x="583.93229" xlink:href="#m53abc0e553" y="444.96928"/>
     <use style="fill:#1f77b4;stroke:#1f77b4;" x="594.12735" xlink:href="#m53abc0e553" y="471.788684"/>
     <use style="fill:#1f77b4;stroke:#1f77b4;" x="604.322409" xlink:href="#m53abc0e553" y="487.14419"/>
     <use style="fill:#1f77b4;stroke:#1f77b4;" x="614.517469" xlink:href="#m53abc0e553" y="500.044673"/>
     <use style="fill:#1f77b4;stroke:#1f77b4;" x="624.712528" xlink:href="#m53abc0e553" y="513.78549"/>
     <use style="fill:#1f77b4;stroke:#1f77b4;" x="634.907588" xlink:href="#m53abc0e553" y="530.232009"/>
     <use style="fill:#1f77b4;stroke:#1f77b4;" x="645.102648" xlink:href="#m53abc0e553" y="554.126139"/>
     <use style="fill:#1f77b4;stroke:#1f77b4;" x="655.297707" xlink:href="#m53abc0e553" y="568.543227"/>
     <use style="fill:#1f77b4;stroke:#1f77b4;" x="665.492767" xlink:href="#m53abc0e553" y="574.278295"/>
     <use style="fill:#1f77b4;stroke:#1f77b4;" x="675.687826" xlink:href="#m53abc0e553" y="588.0308"/>
     <use style="fill:#1f77b4;stroke:#1f77b4;" x="685.882886" xlink:href="#m53abc0e553" y="617.072395"/>
     <use style="fill:#1f77b4;stroke:#1f77b4;" x="696.077945" xlink:href="#m53abc0e553" y="632.971795"/>
     <use style="fill:#1f77b4;stroke:#1f77b4;" x="706.273005" xlink:href="#m53abc0e553" y="639.215585"/>
     <use style="fill:#1f77b4;stroke:#1f77b4;" x="716.468064" xlink:href="#m53abc0e553" y="665.394687"/>
     <use style="fill:#1f77b4;stroke:#1f77b4;" x="726.663124" xlink:href="#m53abc0e553" y="674.224185"/>
     <use style="fill:#1f77b4;stroke:#1f77b4;" x="736.858183" xlink:href="#m53abc0e553" y="679.325659"/>
     <use style="fill:#1f77b4;stroke:#1f77b4;" x="747.053243" xlink:href="#m53abc0e553" y="708.68031"/>
     <use style="fill:#1f77b4;stroke:#1f77b4;" x="757.248302" xlink:href="#m53abc0e553" y="720.527175"/>
     <use style="fill:#1f77b4;stroke:#1f77b4;" x="767.443362" xlink:href="#m53abc0e553" y="730.434616"/>
     <use style="fill:#1f77b4;stroke:#1f77b4;" x="777.638422" xlink:href="#m53abc0e553" y="745.823576"/>
     <use style="fill:#1f77b4;stroke:#1f77b4;" x="787.833481" xlink:href="#m53abc0e553" y="752.43666"/>
     <use style="fill:#1f77b4;stroke:#1f77b4;" x="798.028541" xlink:href="#m53abc0e553" y="762.803901"/>
     <use style="fill:#1f77b4;stroke:#1f77b4;" x="808.2236" xlink:href="#m53abc0e553" y="784.53394"/>
     <use style="fill:#1f77b4;stroke:#1f77b4;" x="818.41866" xlink:href="#m53abc0e553" y="789.941651"/>
     <use style="fill:#1f77b4;stroke:#1f77b4;" x="828.613719" xlink:href="#m53abc0e553" y="809.710049"/>
     <use style="fill:#1f77b4;stroke:#1f77b4;" x="838.808779" xlink:href="#m53abc0e553" y="820.987674"/>
     <use style="fill:#1f77b4;stroke:#1f77b4;" x="849.003838" xlink:href="#m53abc0e553" y="832.79378"/>
     <use style="fill:#1f77b4;stroke:#1f77b4;" x="859.198898" xlink:href="#m53abc0e553" y="843.484296"/>
     <use style="fill:#1f77b4;stroke:#1f77b4;" x="869.393957" xlink:href="#m53abc0e553" y="859.322197"/>
     <use style="fill:#1f77b4;stroke:#1f77b4;" x="879.589017" xlink:href="#m53abc0e553" y="874.448994"/>
     <use style="fill:#1f77b4;stroke:#1f77b4;" x="889.784076" xlink:href="#m53abc0e553" y="886.683139"/>
     <use style="fill:#1f77b4;stroke:#1f77b4;" x="899.979136" xlink:href="#m53abc0e553" y="888.246201"/>
     <use style="fill:#1f77b4;stroke:#1f77b4;" x="910.174196" xlink:href="#m53abc0e553" y="902.871527"/>
     <use style="fill:#1f77b4;stroke:#1f77b4;" x="920.369255" xlink:href="#m53abc0e553" y="912.819956"/>
     <use style="fill:#1f77b4;stroke:#1f77b4;" x="930.564315" xlink:href="#m53abc0e553" y="916.936394"/>
     <use style="fill:#1f77b4;stroke:#1f77b4;" x="940.759374" xlink:href="#m53abc0e553" y="922.725316"/>
     <use style="fill:#1f77b4;stroke:#1f77b4;" x="950.954434" xlink:href="#m53abc0e553" y="936.170948"/>
     <use style="fill:#1f77b4;stroke:#1f77b4;" x="961.149493" xlink:href="#m53abc0e553" y="958.174104"/>
     <use style="fill:#1f77b4;stroke:#1f77b4;" x="971.344553" xlink:href="#m53abc0e553" y="963.036267"/>
     <use style="fill:#1f77b4;stroke:#1f77b4;" x="981.539612" xlink:href="#m53abc0e553" y="967.068419"/>
     <use style="fill:#1f77b4;stroke:#1f77b4;" x="991.734672" xlink:href="#m53abc0e553" y="986.248115"/>
     <use style="fill:#1f77b4;stroke:#1f77b4;" x="1001.929731" xlink:href="#m53abc0e553" y="985.624547"/>
     <use style="fill:#1f77b4;stroke:#1f77b4;" x="1012.124791" xlink:href="#m53abc0e553" y="999.70375"/>
     <use style="fill:#1f77b4;stroke:#1f77b4;" x="1022.31985" xlink:href="#m53abc0e553" y="1000.105569"/>
     <use style="fill:#1f77b4;stroke:#1f77b4;" x="1032.51491" xlink:href="#m53abc0e553" y="1024.771341"/>
     <use style="fill:#1f77b4;stroke:#1f77b4;" x="1042.70997" xlink:href="#m53abc0e553" y="1031.803496"/>
     <use style="fill:#1f77b4;stroke:#1f77b4;" x="1052.905029" xlink:href="#m53abc0e553" y="1043.482727"/>
     <use style="fill:#1f77b4;stroke:#1f77b4;" x="1063.100089" xlink:href="#m53abc0e553" y="1050.040004"/>
     <use style="fill:#1f77b4;stroke:#1f77b4;" x="1073.295148" xlink:href="#m53abc0e553" y="1059.001259"/>
     <use style="fill:#1f77b4;stroke:#1f77b4;" x="1083.490208" xlink:href="#m53abc0e553" y="1047.826865"/>
     <use style="fill:#1f77b4;stroke:#1f77b4;" x="1093.685267" xlink:href="#m53abc0e553" y="1073.809235"/>
     <use style="fill:#1f77b4;stroke:#1f77b4;" x="1103.880327" xlink:href="#m53abc0e553" y="1067.389342"/>
     <use style="fill:#1f77b4;stroke:#1f77b4;" x="1114.075386" xlink:href="#m53abc0e553" y="1072.464803"/>
     <use style="fill:#1f77b4;stroke:#1f77b4;" x="1124.270446" xlink:href="#m53abc0e553" y="1078.438211"/>
     <use style="fill:#1f77b4;stroke:#1f77b4;" x="1134.465505" xlink:href="#m53abc0e553" y="1090.819086"/>
     <use style="fill:#1f77b4;stroke:#1f77b4;" x="1144.660565" xlink:href="#m53abc0e553" y="1090.243174"/>
     <use style="fill:#1f77b4;stroke:#1f77b4;" x="1154.855625" xlink:href="#m53abc0e553" y="1103.640728"/>
     <use style="fill:#1f77b4;stroke:#1f77b4;" x="1165.050684" xlink:href="#m53abc0e553" y="1112.32582"/>
     <use style="fill:#1f77b4;stroke:#1f77b4;" x="1175.245744" xlink:href="#m53abc0e553" y="1119.931878"/>
     <use style="fill:#1f77b4;stroke:#1f77b4;" x="1185.440803" xlink:href="#m53abc0e553" y="1126.192583"/>
     <use style="fill:#1f77b4;stroke:#1f77b4;" x="1195.635863" xlink:href="#m53abc0e553" y="1138.033913"/>
     <use style="fill:#1f77b4;stroke:#1f77b4;" x="1205.830922" xlink:href="#m53abc0e553" y="1131.134564"/>
     <use style="fill:#1f77b4;stroke:#1f77b4;" x="1216.025982" xlink:href="#m53abc0e553" y="1146.164922"/>
     <use style="fill:#1f77b4;stroke:#1f77b4;" x="1226.221041" xlink:href="#m53abc0e553" y="1135.138381"/>
     <use style="fill:#1f77b4;stroke:#1f77b4;" x="1236.416101" xlink:href="#m53abc0e553" y="1158.006757"/>
     <use style="fill:#1f77b4;stroke:#1f77b4;" x="1246.61116" xlink:href="#m53abc0e553" y="1154.043597"/>
     <use style="fill:#1f77b4;stroke:#1f77b4;" x="1256.80622" xlink:href="#m53abc0e553" y="1153.164589"/>
     <use style="fill:#1f77b4;stroke:#1f77b4;" x="1267.001279" xlink:href="#m53abc0e553" y="1156.310212"/>
     <use style="fill:#1f77b4;stroke:#1f77b4;" x="1277.196339" xlink:href="#m53abc0e553" y="1167.843399"/>
     <use style="fill:#1f77b4;stroke:#1f77b4;" x="1287.391399" xlink:href="#m53abc0e553" y="1178.853339"/>
     <use style="fill:#1f77b4;stroke:#1f77b4;" x="1297.586458" xlink:href="#m53abc0e553" y="1180.285946"/>
     <use style="fill:#1f77b4;stroke:#1f77b4;" x="1307.781518" xlink:href="#m53abc0e553" y="1181.162612"/>
     <use style="fill:#1f77b4;stroke:#1f77b4;" x="1317.976577" xlink:href="#m53abc0e553" y="1178.573495"/>
     <use style="fill:#1f77b4;stroke:#1f77b4;" x="1328.171637" xlink:href="#m53abc0e553" y="1189.076341"/>
     <use style="fill:#1f77b4;stroke:#1f77b4;" x="1338.366696" xlink:href="#m53abc0e553" y="1193.676235"/>
     <use style="fill:#1f77b4;stroke:#1f77b4;" x="1348.561756" xlink:href="#m53abc0e553" y="1189.500926"/>
     <use style="fill:#1f77b4;stroke:#1f77b4;" x="1358.756815" xlink:href="#m53abc0e553" y="1191.613266"/>
     <use style="fill:#1f77b4;stroke:#1f77b4;" x="1368.951875" xlink:href="#m53abc0e553" y="1192.620345"/>
     <use style="fill:#1f77b4;stroke:#1f77b4;" x="1379.146934" xlink:href="#m53abc0e553" y="1203.696347"/>
     <use style="fill:#1f77b4;stroke:#1f77b4;" x="1389.341994" xlink:href="#m53abc0e553" y="1205.618856"/>
     <use style="fill:#1f77b4;stroke:#1f77b4;" x="1399.537053" xlink:href="#m53abc0e553" y="1200.242754"/>
     <use style="fill:#1f77b4;stroke:#1f77b4;" x="1409.732113" xlink:href="#m53abc0e553" y="1196.415083"/>
     <use style="fill:#1f77b4;stroke:#1f77b4;" x="1419.927173" xlink:href="#m53abc0e553" y="1207.029945"/>
     <use style="fill:#1f77b4;stroke:#1f77b4;" x="1430.122232" xlink:href="#m53abc0e553" y="1199.136396"/>
     <use style="fill:#1f77b4;stroke:#1f77b4;" x="1440.317292" xlink:href="#m53abc0e553" y="1204.521588"/>
     <use style="fill:#1f77b4;stroke:#1f77b4;" x="1450.512351" xlink:href="#m53abc0e553" y="1210.554929"/>
     <use style="fill:#1f77b4;stroke:#1f77b4;" x="1460.707411" xlink:href="#m53abc0e553" y="1201.30781"/>
     <use style="fill:#1f77b4;stroke:#1f77b4;" x="1470.90247" xlink:href="#m53abc0e553" y="1197.473142"/>
     <use style="fill:#1f77b4;stroke:#1f77b4;" x="1481.09753" xlink:href="#m53abc0e553" y="1199.863562"/>
     <use style="fill:#1f77b4;stroke:#1f77b4;" x="1491.292589" xlink:href="#m53abc0e553" y="1200.000738"/>
     <use style="fill:#1f77b4;stroke:#1f77b4;" x="1501.487649" xlink:href="#m53abc0e553" y="1209.276751"/>
     <use style="fill:#1f77b4;stroke:#1f77b4;" x="1511.682708" xlink:href="#m53abc0e553" y="1201.79335"/>
     <use style="fill:#1f77b4;stroke:#1f77b4;" x="1521.877768" xlink:href="#m53abc0e553" y="1203.52681"/>
     <use style="fill:#1f77b4;stroke:#1f77b4;" x="1532.072827" xlink:href="#m53abc0e553" y="1197.236316"/>
     <use style="fill:#1f77b4;stroke:#1f77b4;" x="1542.267887" xlink:href="#m53abc0e553" y="1208.416466"/>
     <use style="fill:#1f77b4;stroke:#1f77b4;" x="1552.462947" xlink:href="#m53abc0e553" y="1208.969651"/>
     <use style="fill:#1f77b4;stroke:#1f77b4;" x="1562.658006" xlink:href="#m53abc0e553" y="1191.957217"/>
     <use style="fill:#1f77b4;stroke:#1f77b4;" x="1572.853066" xlink:href="#m53abc0e553" y="1206.583585"/>
     <use style="fill:#1f77b4;stroke:#1f77b4;" x="1583.048125" xlink:href="#m53abc0e553" y="1196.171612"/>
     <use style="fill:#1f77b4;stroke:#1f77b4;" x="1593.243185" xlink:href="#m53abc0e553" y="1201.609405"/>
     <use style="fill:#1f77b4;stroke:#1f77b4;" x="1603.438244" xlink:href="#m53abc0e553" y="1185.468792"/>
     <use style="fill:#1f77b4;stroke:#1f77b4;" x="1613.633304" xlink:href="#m53abc0e553" y="1194.470453"/>
     <use style="fill:#1f77b4;stroke:#1f77b4;" x="1623.828363" xlink:href="#m53abc0e553" y="1192.248219"/>
     <use style="fill:#1f77b4;stroke:#1f77b4;" x="1634.023423" xlink:href="#m53abc0e553" y="1176.760284"/>
     <use style="fill:#1f77b4;stroke:#1f77b4;" x="1644.218482" xlink:href="#m53abc0e553" y="1188.374445"/>
     <use style="fill:#1f77b4;stroke:#1f77b4;" x="1654.413542" xlink:href="#m53abc0e553" y="1182.83743"/>
     <use style="fill:#1f77b4;stroke:#1f77b4;" x="1664.608601" xlink:href="#m53abc0e553" y="1168.169527"/>
     <use style="fill:#1f77b4;stroke:#1f77b4;" x="1674.803661" xlink:href="#m53abc0e553" y="1177.821678"/>
     <use style="fill:#1f77b4;stroke:#1f77b4;" x="1684.998721" xlink:href="#m53abc0e553" y="1157.012594"/>
     <use style="fill:#1f77b4;stroke:#1f77b4;" x="1695.19378" xlink:href="#m53abc0e553" y="1159.174192"/>
     <use style="fill:#1f77b4;stroke:#1f77b4;" x="1705.38884" xlink:href="#m53abc0e553" y="1150.402468"/>
     <use style="fill:#1f77b4;stroke:#1f77b4;" x="1715.583899" xlink:href="#m53abc0e553" y="1156.756117"/>
     <use style="fill:#1f77b4;stroke:#1f77b4;" x="1725.778959" xlink:href="#m53abc0e553" y="1143.946897"/>
     <use style="fill:#1f77b4;stroke:#1f77b4;" x="1735.974018" xlink:href="#m53abc0e553" y="1150.494658"/>
     <use style="fill:#1f77b4;stroke:#1f77b4;" x="1746.169078" xlink:href="#m53abc0e553" y="1139.288341"/>
     <use style="fill:#1f77b4;stroke:#1f77b4;" x="1756.364137" xlink:href="#m53abc0e553" y="1140.997211"/>
     <use style="fill:#1f77b4;stroke:#1f77b4;" x="1766.559197" xlink:href="#m53abc0e553" y="1121.979186"/>
     <use style="fill:#1f77b4;stroke:#1f77b4;" x="1776.754256" xlink:href="#m53abc0e553" y="1127.671608"/>
     <use style="fill:#1f77b4;stroke:#1f77b4;" x="1786.949316" xlink:href="#m53abc0e553" y="1116.197418"/>
     <use style="fill:#1f77b4;stroke:#1f77b4;" x="1797.144375" xlink:href="#m53abc0e553" y="1109.712652"/>
     <use style="fill:#1f77b4;stroke:#1f77b4;" x="1807.339435" xlink:href="#m53abc0e553" y="1112.532405"/>
     <use style="fill:#1f77b4;stroke:#1f77b4;" x="1817.534495" xlink:href="#m53abc0e553" y="1105.383088"/>
     <use style="fill:#1f77b4;stroke:#1f77b4;" x="1827.729554" xlink:href="#m53abc0e553" y="1100.978246"/>
     <use style="fill:#1f77b4;stroke:#1f77b4;" x="1837.924614" xlink:href="#m53abc0e553" y="1090.457174"/>
     <use style="fill:#1f77b4;stroke:#1f77b4;" x="1848.119673" xlink:href="#m53abc0e553" y="1078.686251"/>
     <use style="fill:#1f77b4;stroke:#1f77b4;" x="1858.314733" xlink:href="#m53abc0e553" y="1074.647684"/>
     <use style="fill:#1f77b4;stroke:#1f77b4;" x="1868.509792" xlink:href="#m53abc0e553" y="1067.493026"/>
     <use style="fill:#1f77b4;stroke:#1f77b4;" x="1878.704852" xlink:href="#m53abc0e553" y="1066.012248"/>
     <use style="fill:#1f77b4;stroke:#1f77b4;" x="1888.899911" xlink:href="#m53abc0e553" y="1042.833404"/>
     <use style="fill:#1f77b4;stroke:#1f77b4;" x="1899.094971" xlink:href="#m53abc0e553" y="1040.518844"/>
     <use style="fill:#1f77b4;stroke:#1f77b4;" x="1909.29003" xlink:href="#m53abc0e553" y="1026.205764"/>
     <use style="fill:#1f77b4;stroke:#1f77b4;" x="1919.48509" xlink:href="#m53abc0e553" y="1030.644092"/>
     <use style="fill:#1f77b4;stroke:#1f77b4;" x="1929.68015" xlink:href="#m53abc0e553" y="1013.370528"/>
     <use style="fill:#1f77b4;stroke:#1f77b4;" x="1939.875209" xlink:href="#m53abc0e553" y="1004.597116"/>
     <use style="fill:#1f77b4;stroke:#1f77b4;" x="1950.070269" xlink:href="#m53abc0e553" y="1001.913731"/>
     <use style="fill:#1f77b4;stroke:#1f77b4;" x="1960.265328" xlink:href="#m53abc0e553" y="998.940343"/>
     <use style="fill:#1f77b4;stroke:#1f77b4;" x="1970.460388" xlink:href="#m53abc0e553" y="978.914454"/>
     <use style="fill:#1f77b4;stroke:#1f77b4;" x="1980.655447" xlink:href="#m53abc0e553" y="981.174821"/>
     <use style="fill:#1f77b4;stroke:#1f77b4;" x="1990.850507" xlink:href="#m53abc0e553" y="970.995277"/>
     <use style="fill:#1f77b4;stroke:#1f77b4;" x="2001.045566" xlink:href="#m53abc0e553" y="961.372035"/>
     <use style="fill:#1f77b4;stroke:#1f77b4;" x="2011.240626" xlink:href="#m53abc0e553" y="941.233261"/>
     <use style="fill:#1f77b4;stroke:#1f77b4;" x="2021.435685" xlink:href="#m53abc0e553" y="937.468047"/>
     <use style="fill:#1f77b4;stroke:#1f77b4;" x="2031.630745" xlink:href="#m53abc0e553" y="917.361962"/>
     <use style="fill:#1f77b4;stroke:#1f77b4;" x="2041.825804" xlink:href="#m53abc0e553" y="918.382819"/>
     <use style="fill:#1f77b4;stroke:#1f77b4;" x="2052.020864" xlink:href="#m53abc0e553" y="906.332294"/>
     <use style="fill:#1f77b4;stroke:#1f77b4;" x="2062.215924" xlink:href="#m53abc0e553" y="889.768673"/>
     <use style="fill:#1f77b4;stroke:#1f77b4;" x="2072.410983" xlink:href="#m53abc0e553" y="881.950892"/>
     <use style="fill:#1f77b4;stroke:#1f77b4;" x="2082.606043" xlink:href="#m53abc0e553" y="857.203815"/>
     <use style="fill:#1f77b4;stroke:#1f77b4;" x="2092.801102" xlink:href="#m53abc0e553" y="860.427731"/>
     <use style="fill:#1f77b4;stroke:#1f77b4;" x="2102.996162" xlink:href="#m53abc0e553" y="835.010393"/>
     <use style="fill:#1f77b4;stroke:#1f77b4;" x="2113.191221" xlink:href="#m53abc0e553" y="837.343453"/>
     <use style="fill:#1f77b4;stroke:#1f77b4;" x="2123.386281" xlink:href="#m53abc0e553" y="817.682691"/>
     <use style="fill:#1f77b4;stroke:#1f77b4;" x="2133.58134" xlink:href="#m53abc0e553" y="802.126562"/>
     <use style="fill:#1f77b4;stroke:#1f77b4;" x="2143.7764" xlink:href="#m53abc0e553" y="793.50946"/>
     <use style="fill:#1f77b4;stroke:#1f77b4;" x="2153.971459" xlink:href="#m53abc0e553" y="773.886452"/>
     <use style="fill:#1f77b4;stroke:#1f77b4;" x="2164.166519" xlink:href="#m53abc0e553" y="766.800478"/>
     <use style="fill:#1f77b4;stroke:#1f77b4;" x="2174.361578" xlink:href="#m53abc0e553" y="751.644355"/>
     <use style="fill:#1f77b4;stroke:#1f77b4;" x="2184.556638" xlink:href="#m53abc0e553" y="741.130808"/>
     <use style="fill:#1f77b4;stroke:#1f77b4;" x="2194.751698" xlink:href="#m53abc0e553" y="732.118847"/>
     <use style="fill:#1f77b4;stroke:#1f77b4;" x="2204.946757" xlink:href="#m53abc0e553" y="718.145924"/>
     <use style="fill:#1f77b4;stroke:#1f77b4;" x="2215.141817" xlink:href="#m53abc0e553" y="699.539232"/>
     <use style="fill:#1f77b4;stroke:#1f77b4;" x="2225.336876" xlink:href="#m53abc0e553" y="677.439243"/>
     <use style="fill:#1f77b4;stroke:#1f77b4;" x="2235.531936" xlink:href="#m53abc0e553" y="671.920448"/>
     <use style="fill:#1f77b4;stroke:#1f77b4;" x="2245.726995" xlink:href="#m53abc0e553" y="664.277717"/>
     <use style="fill:#1f77b4;stroke:#1f77b4;" x="2255.922055" xlink:href="#m53abc0e553" y="638.090318"/>
     <use style="fill:#1f77b4;stroke:#1f77b4;" x="2266.117114" xlink:href="#m53abc0e553" y="620.422224"/>
     <use style="fill:#1f77b4;stroke:#1f77b4;" x="2276.312174" xlink:href="#m53abc0e553" y="616.893177"/>
     <use style="fill:#1f77b4;stroke:#1f77b4;" x="2286.507233" xlink:href="#m53abc0e553" y="592.266029"/>
     <use style="fill:#1f77b4;stroke:#1f77b4;" x="2296.702293" xlink:href="#m53abc0e553" y="580.127266"/>
     <use style="fill:#1f77b4;stroke:#1f77b4;" x="2306.897352" xlink:href="#m53abc0e553" y="558.280541"/>
     <use style="fill:#1f77b4;stroke:#1f77b4;" x="2317.092412" xlink:href="#m53abc0e553" y="557.399543"/>
     <use style="fill:#1f77b4;stroke:#1f77b4;" x="2327.287472" xlink:href="#m53abc0e553" y="530.488534"/>
     <use style="fill:#1f77b4;stroke:#1f77b4;" x="2337.482531" xlink:href="#m53abc0e553" y="510.509361"/>
     <use style="fill:#1f77b4;stroke:#1f77b4;" x="2347.677591" xlink:href="#m53abc0e553" y="506.992936"/>
     <use style="fill:#1f77b4;stroke:#1f77b4;" x="2357.87265" xlink:href="#m53abc0e553" y="476.546002"/>
     <use style="fill:#1f77b4;stroke:#1f77b4;" x="2368.06771" xlink:href="#m53abc0e553" y="463.654118"/>
     <use style="fill:#1f77b4;stroke:#1f77b4;" x="2378.262769" xlink:href="#m53abc0e553" y="454.370174"/>
     <use style="fill:#1f77b4;stroke:#1f77b4;" x="2388.457829" xlink:href="#m53abc0e553" y="424.888087"/>
     <use style="fill:#1f77b4;stroke:#1f77b4;" x="2398.652888" xlink:href="#m53abc0e553" y="413.419727"/>
     <use style="fill:#1f77b4;stroke:#1f77b4;" x="2408.847948" xlink:href="#m53abc0e553" y="404.157212"/>
     <use style="fill:#1f77b4;stroke:#1f77b4;" x="2419.043007" xlink:href="#m53abc0e553" y="374.9164"/>
     <use style="fill:#1f77b4;stroke:#1f77b4;" x="2429.238067" xlink:href="#m53abc0e553" y="354.328098"/>
     <use style="fill:#1f77b4;stroke:#1f77b4;" x="2439.433126" xlink:href="#m53abc0e553" y="338.450235"/>
     <use style="fill:#1f77b4;stroke:#1f77b4;" x="2449.628186" xlink:href="#m53abc0e553" y="328.763592"/>
     <use style="fill:#1f77b4;stroke:#1f77b4;" x="2459.823246" xlink:href="#m53abc0e553" y="308.089834"/>
     <use style="fill:#1f77b4;stroke:#1f77b4;" x="2470.018305" xlink:href="#m53abc0e553" y="297.565449"/>
     <use style="fill:#1f77b4;stroke:#1f77b4;" x="2480.213365" xlink:href="#m53abc0e553" y="265.227254"/>
     <use style="fill:#1f77b4;stroke:#1f77b4;" x="2490.408424" xlink:href="#m53abc0e553" y="257.898161"/>
    </g>
   </g>
   <g id="matplotlib.axis_1">
    <g id="xtick_1">
     <g id="line2d_1">
      <defs>
       <path d="M 0 0 
L 0 3.5 
" id="m3fbcd52dd5" style="stroke:#000000;stroke-width:0.8;"/>
      </defs>
      <g>
       <use style="stroke:#000000;stroke-width:0.8;" x="461.591576" xlink:href="#m3fbcd52dd5" y="1260"/>
      </g>
     </g>
     <g id="text_1">
      <!-- −10.0 -->
      <defs>
       <path d="M 10.59375 35.5 
L 73.1875 35.5 
L 73.1875 27.203125 
L 10.59375 27.203125 
z
" id="DejaVuSans-8722"/>
       <path d="M 12.40625 8.296875 
L 28.515625 8.296875 
L 28.515625 63.921875 
L 10.984375 60.40625 
L 10.984375 69.390625 
L 28.421875 72.90625 
L 38.28125 72.90625 
L 38.28125 8.296875 
L 54.390625 8.296875 
L 54.390625 0 
L 12.40625 0 
z
" id="DejaVuSans-49"/>
       <path d="M 31.78125 66.40625 
Q 24.171875 66.40625 20.328125 58.90625 
Q 16.5 51.421875 16.5 36.375 
Q 16.5 21.390625 20.328125 13.890625 
Q 24.171875 6.390625 31.78125 6.390625 
Q 39.453125 6.390625 43.28125 13.890625 
Q 47.125 21.390625 47.125 36.375 
Q 47.125 51.421875 43.28125 58.90625 
Q 39.453125 66.40625 31.78125 66.40625 
z
M 31.78125 74.21875 
Q 44.046875 74.21875 50.515625 64.515625 
Q 56.984375 54.828125 56.984375 36.375 
Q 56.984375 17.96875 50.515625 8.265625 
Q 44.046875 -1.421875 31.78125 -1.421875 
Q 19.53125 -1.421875 13.0625 8.265625 
Q 6.59375 17.96875 6.59375 36.375 
Q 6.59375 54.828125 13.0625 64.515625 
Q 19.53125 74.21875 31.78125 74.21875 
z
" id="DejaVuSans-48"/>
       <path d="M 10.6875 12.40625 
L 21 12.40625 
L 21 0 
L 10.6875 0 
z
" id="DejaVuSans-46"/>
      </defs>
      <g transform="translate(446.26892 1274.598438)scale(0.1 -0.1)">
       <use xlink:href="#DejaVuSans-8722"/>
       <use x="83.789062" xlink:href="#DejaVuSans-49"/>
       <use x="147.412109" xlink:href="#DejaVuSans-48"/>
       <use x="211.035156" xlink:href="#DejaVuSans-46"/>
       <use x="242.822266" xlink:href="#DejaVuSans-48"/>
      </g>
     </g>
    </g>
    <g id="xtick_2">
     <g id="line2d_2">
      <g>
       <use style="stroke:#000000;stroke-width:0.8;" x="716.468064" xlink:href="#m3fbcd52dd5" y="1260"/>
      </g>
     </g>
     <g id="text_2">
      <!-- −7.5 -->
      <defs>
       <path d="M 8.203125 72.90625 
L 55.078125 72.90625 
L 55.078125 68.703125 
L 28.609375 0 
L 18.3125 0 
L 43.21875 64.59375 
L 8.203125 64.59375 
z
" id="DejaVuSans-55"/>
       <path d="M 10.796875 72.90625 
L 49.515625 72.90625 
L 49.515625 64.59375 
L 19.828125 64.59375 
L 19.828125 46.734375 
Q 21.96875 47.46875 24.109375 47.828125 
Q 26.265625 48.1875 28.421875 48.1875 
Q 40.625 48.1875 47.75 41.5 
Q 54.890625 34.8125 54.890625 23.390625 
Q 54.890625 11.625 47.5625 5.09375 
Q 40.234375 -1.421875 26.90625 -1.421875 
Q 22.3125 -1.421875 17.546875 -0.640625 
Q 12.796875 0.140625 7.71875 1.703125 
L 7.71875 11.625 
Q 12.109375 9.234375 16.796875 8.0625 
Q 21.484375 6.890625 26.703125 6.890625 
Q 35.15625 6.890625 40.078125 11.328125 
Q 45.015625 15.765625 45.015625 23.390625 
Q 45.015625 31 40.078125 35.4375 
Q 35.15625 39.890625 26.703125 39.890625 
Q 22.75 39.890625 18.8125 39.015625 
Q 14.890625 38.140625 10.796875 36.28125 
z
" id="DejaVuSans-53"/>
      </defs>
      <g transform="translate(704.326658 1274.598438)scale(0.1 -0.1)">
       <use xlink:href="#DejaVuSans-8722"/>
       <use x="83.789062" xlink:href="#DejaVuSans-55"/>
       <use x="147.412109" xlink:href="#DejaVuSans-46"/>
       <use x="179.199219" xlink:href="#DejaVuSans-53"/>
      </g>
     </g>
    </g>
    <g id="xtick_3">
     <g id="line2d_3">
      <g>
       <use style="stroke:#000000;stroke-width:0.8;" x="971.344553" xlink:href="#m3fbcd52dd5" y="1260"/>
      </g>
     </g>
     <g id="text_3">
      <!-- −5.0 -->
      <g transform="translate(959.203147 1274.598438)scale(0.1 -0.1)">
       <use xlink:href="#DejaVuSans-8722"/>
       <use x="83.789062" xlink:href="#DejaVuSans-53"/>
       <use x="147.412109" xlink:href="#DejaVuSans-46"/>
       <use x="179.199219" xlink:href="#DejaVuSans-48"/>
      </g>
     </g>
    </g>
    <g id="xtick_4">
     <g id="line2d_4">
      <g>
       <use style="stroke:#000000;stroke-width:0.8;" x="1226.221041" xlink:href="#m3fbcd52dd5" y="1260"/>
      </g>
     </g>
     <g id="text_4">
      <!-- −2.5 -->
      <defs>
       <path d="M 19.1875 8.296875 
L 53.609375 8.296875 
L 53.609375 0 
L 7.328125 0 
L 7.328125 8.296875 
Q 12.9375 14.109375 22.625 23.890625 
Q 32.328125 33.6875 34.8125 36.53125 
Q 39.546875 41.84375 41.421875 45.53125 
Q 43.3125 49.21875 43.3125 52.78125 
Q 43.3125 58.59375 39.234375 62.25 
Q 35.15625 65.921875 28.609375 65.921875 
Q 23.96875 65.921875 18.8125 64.3125 
Q 13.671875 62.703125 7.8125 59.421875 
L 7.8125 69.390625 
Q 13.765625 71.78125 18.9375 73 
Q 24.125 74.21875 28.421875 74.21875 
Q 39.75 74.21875 46.484375 68.546875 
Q 53.21875 62.890625 53.21875 53.421875 
Q 53.21875 48.921875 51.53125 44.890625 
Q 49.859375 40.875 45.40625 35.40625 
Q 44.1875 33.984375 37.640625 27.21875 
Q 31.109375 20.453125 19.1875 8.296875 
z
" id="DejaVuSans-50"/>
      </defs>
      <g transform="translate(1214.079635 1274.598438)scale(0.1 -0.1)">
       <use xlink:href="#DejaVuSans-8722"/>
       <use x="83.789062" xlink:href="#DejaVuSans-50"/>
       <use x="147.412109" xlink:href="#DejaVuSans-46"/>
       <use x="179.199219" xlink:href="#DejaVuSans-53"/>
      </g>
     </g>
    </g>
    <g id="xtick_5">
     <g id="line2d_5">
      <g>
       <use style="stroke:#000000;stroke-width:0.8;" x="1481.09753" xlink:href="#m3fbcd52dd5" y="1260"/>
      </g>
     </g>
     <g id="text_5">
      <!-- 0.0 -->
      <g transform="translate(1473.145967 1274.598438)scale(0.1 -0.1)">
       <use xlink:href="#DejaVuSans-48"/>
       <use x="63.623047" xlink:href="#DejaVuSans-46"/>
       <use x="95.410156" xlink:href="#DejaVuSans-48"/>
      </g>
     </g>
    </g>
    <g id="xtick_6">
     <g id="line2d_6">
      <g>
       <use style="stroke:#000000;stroke-width:0.8;" x="1735.974018" xlink:href="#m3fbcd52dd5" y="1260"/>
      </g>
     </g>
     <g id="text_6">
      <!-- 2.5 -->
      <g transform="translate(1728.022456 1274.598438)scale(0.1 -0.1)">
       <use xlink:href="#DejaVuSans-50"/>
       <use x="63.623047" xlink:href="#DejaVuSans-46"/>
       <use x="95.410156" xlink:href="#DejaVuSans-53"/>
      </g>
     </g>
    </g>
    <g id="xtick_7">
     <g id="line2d_7">
      <g>
       <use style="stroke:#000000;stroke-width:0.8;" x="1990.850507" xlink:href="#m3fbcd52dd5" y="1260"/>
      </g>
     </g>
     <g id="text_7">
      <!-- 5.0 -->
      <g transform="translate(1982.898944 1274.598438)scale(0.1 -0.1)">
       <use xlink:href="#DejaVuSans-53"/>
       <use x="63.623047" xlink:href="#DejaVuSans-46"/>
       <use x="95.410156" xlink:href="#DejaVuSans-48"/>
      </g>
     </g>
    </g>
    <g id="xtick_8">
     <g id="line2d_8">
      <g>
       <use style="stroke:#000000;stroke-width:0.8;" x="2245.726995" xlink:href="#m3fbcd52dd5" y="1260"/>
      </g>
     </g>
     <g id="text_8">
      <!-- 7.5 -->
      <g transform="translate(2237.775433 1274.598438)scale(0.1 -0.1)">
       <use xlink:href="#DejaVuSans-55"/>
       <use x="63.623047" xlink:href="#DejaVuSans-46"/>
       <use x="95.410156" xlink:href="#DejaVuSans-53"/>
      </g>
     </g>
    </g>
    <g id="xtick_9">
     <g id="line2d_9">
      <g>
       <use style="stroke:#000000;stroke-width:0.8;" x="2500.603484" xlink:href="#m3fbcd52dd5" y="1260"/>
      </g>
     </g>
     <g id="text_9">
      <!-- 10.0 -->
      <g transform="translate(2489.470671 1274.598438)scale(0.1 -0.1)">
       <use xlink:href="#DejaVuSans-49"/>
       <use x="63.623047" xlink:href="#DejaVuSans-48"/>
       <use x="127.246094" xlink:href="#DejaVuSans-46"/>
       <use x="159.033203" xlink:href="#DejaVuSans-48"/>
      </g>
     </g>
    </g>
   </g>
   <g id="matplotlib.axis_2">
    <g id="ytick_1">
     <g id="line2d_10">
      <defs>
       <path d="M 0 0 
L -3.5 0 
" id="m2b760ac581" style="stroke:#000000;stroke-width:0.8;"/>
      </defs>
      <g>
       <use style="stroke:#000000;stroke-width:0.8;" x="360" xlink:href="#m2b760ac581" y="1215.424099"/>
      </g>
     </g>
     <g id="text_10">
      <!-- 0 -->
      <g transform="translate(346.6375 1219.223318)scale(0.1 -0.1)">
       <use xlink:href="#DejaVuSans-48"/>
      </g>
     </g>
    </g>
    <g id="ytick_2">
     <g id="line2d_11">
      <g>
       <use style="stroke:#000000;stroke-width:0.8;" x="360" xlink:href="#m2b760ac581" y="1020.531016"/>
      </g>
     </g>
     <g id="text_11">
      <!-- 20 -->
      <g transform="translate(340.275 1024.330235)scale(0.1 -0.1)">
       <use xlink:href="#DejaVuSans-50"/>
       <use x="63.623047" xlink:href="#DejaVuSans-48"/>
      </g>
     </g>
    </g>
    <g id="ytick_3">
     <g id="line2d_12">
      <g>
       <use style="stroke:#000000;stroke-width:0.8;" x="360" xlink:href="#m2b760ac581" y="825.637932"/>
      </g>
     </g>
     <g id="text_12">
      <!-- 40 -->
      <defs>
       <path d="M 37.796875 64.3125 
L 12.890625 25.390625 
L 37.796875 25.390625 
z
M 35.203125 72.90625 
L 47.609375 72.90625 
L 47.609375 25.390625 
L 58.015625 25.390625 
L 58.015625 17.1875 
L 47.609375 17.1875 
L 47.609375 0 
L 37.796875 0 
L 37.796875 17.1875 
L 4.890625 17.1875 
L 4.890625 26.703125 
z
" id="DejaVuSans-52"/>
      </defs>
      <g transform="translate(340.275 829.437151)scale(0.1 -0.1)">
       <use xlink:href="#DejaVuSans-52"/>
       <use x="63.623047" xlink:href="#DejaVuSans-48"/>
      </g>
     </g>
    </g>
    <g id="ytick_4">
     <g id="line2d_13">
      <g>
       <use style="stroke:#000000;stroke-width:0.8;" x="360" xlink:href="#m2b760ac581" y="630.744849"/>
      </g>
     </g>
     <g id="text_13">
      <!-- 60 -->
      <defs>
       <path d="M 33.015625 40.375 
Q 26.375 40.375 22.484375 35.828125 
Q 18.609375 31.296875 18.609375 23.390625 
Q 18.609375 15.53125 22.484375 10.953125 
Q 26.375 6.390625 33.015625 6.390625 
Q 39.65625 6.390625 43.53125 10.953125 
Q 47.40625 15.53125 47.40625 23.390625 
Q 47.40625 31.296875 43.53125 35.828125 
Q 39.65625 40.375 33.015625 40.375 
z
M 52.59375 71.296875 
L 52.59375 62.3125 
Q 48.875 64.0625 45.09375 64.984375 
Q 41.3125 65.921875 37.59375 65.921875 
Q 27.828125 65.921875 22.671875 59.328125 
Q 17.53125 52.734375 16.796875 39.40625 
Q 19.671875 43.65625 24.015625 45.921875 
Q 28.375 48.1875 33.59375 48.1875 
Q 44.578125 48.1875 50.953125 41.515625 
Q 57.328125 34.859375 57.328125 23.390625 
Q 57.328125 12.15625 50.6875 5.359375 
Q 44.046875 -1.421875 33.015625 -1.421875 
Q 20.359375 -1.421875 13.671875 8.265625 
Q 6.984375 17.96875 6.984375 36.375 
Q 6.984375 53.65625 15.1875 63.9375 
Q 23.390625 74.21875 37.203125 74.21875 
Q 40.921875 74.21875 44.703125 73.484375 
Q 48.484375 72.75 52.59375 71.296875 
z
" id="DejaVuSans-54"/>
      </defs>
      <g transform="translate(340.275 634.544068)scale(0.1 -0.1)">
       <use xlink:href="#DejaVuSans-54"/>
       <use x="63.623047" xlink:href="#DejaVuSans-48"/>
      </g>
     </g>
    </g>
    <g id="ytick_5">
     <g id="line2d_14">
      <g>
       <use style="stroke:#000000;stroke-width:0.8;" x="360" xlink:href="#m2b760ac581" y="435.851766"/>
      </g>
     </g>
     <g id="text_14">
      <!-- 80 -->
      <defs>
       <path d="M 31.78125 34.625 
Q 24.75 34.625 20.71875 30.859375 
Q 16.703125 27.09375 16.703125 20.515625 
Q 16.703125 13.921875 20.71875 10.15625 
Q 24.75 6.390625 31.78125 6.390625 
Q 38.8125 6.390625 42.859375 10.171875 
Q 46.921875 13.96875 46.921875 20.515625 
Q 46.921875 27.09375 42.890625 30.859375 
Q 38.875 34.625 31.78125 34.625 
z
M 21.921875 38.8125 
Q 15.578125 40.375 12.03125 44.71875 
Q 8.5 49.078125 8.5 55.328125 
Q 8.5 64.0625 14.71875 69.140625 
Q 20.953125 74.21875 31.78125 74.21875 
Q 42.671875 74.21875 48.875 69.140625 
Q 55.078125 64.0625 55.078125 55.328125 
Q 55.078125 49.078125 51.53125 44.71875 
Q 48 40.375 41.703125 38.8125 
Q 48.828125 37.15625 52.796875 32.3125 
Q 56.78125 27.484375 56.78125 20.515625 
Q 56.78125 9.90625 50.3125 4.234375 
Q 43.84375 -1.421875 31.78125 -1.421875 
Q 19.734375 -1.421875 13.25 4.234375 
Q 6.78125 9.90625 6.78125 20.515625 
Q 6.78125 27.484375 10.78125 32.3125 
Q 14.796875 37.15625 21.921875 38.8125 
z
M 18.3125 54.390625 
Q 18.3125 48.734375 21.84375 45.5625 
Q 25.390625 42.390625 31.78125 42.390625 
Q 38.140625 42.390625 41.71875 45.5625 
Q 45.3125 48.734375 45.3125 54.390625 
Q 45.3125 60.0625 41.71875 63.234375 
Q 38.140625 66.40625 31.78125 66.40625 
Q 25.390625 66.40625 21.84375 63.234375 
Q 18.3125 60.0625 18.3125 54.390625 
z
" id="DejaVuSans-56"/>
      </defs>
      <g transform="translate(340.275 439.650984)scale(0.1 -0.1)">
       <use xlink:href="#DejaVuSans-56"/>
       <use x="63.623047" xlink:href="#DejaVuSans-48"/>
      </g>
     </g>
    </g>
    <g id="ytick_6">
     <g id="line2d_15">
      <g>
       <use style="stroke:#000000;stroke-width:0.8;" x="360" xlink:href="#m2b760ac581" y="240.958682"/>
      </g>
     </g>
     <g id="text_15">
      <!-- 100 -->
      <g transform="translate(333.9125 244.757901)scale(0.1 -0.1)">
       <use xlink:href="#DejaVuSans-49"/>
       <use x="63.623047" xlink:href="#DejaVuSans-48"/>
       <use x="127.246094" xlink:href="#DejaVuSans-48"/>
      </g>
     </g>
    </g>
   </g>
   <g id="patch_3">
    <path d="M 360 1260 
L 360 172.8 
" style="fill:none;stroke:#000000;stroke-linecap:square;stroke-linejoin:miter;stroke-width:0.8;"/>
   </g>
   <g id="patch_4">
    <path d="M 2592 1260 
L 2592 172.8 
" style="fill:none;stroke:#000000;stroke-linecap:square;stroke-linejoin:miter;stroke-width:0.8;"/>
   </g>
   <g id="patch_5">
    <path d="M 360 1260 
L 2592 1260 
" style="fill:none;stroke:#000000;stroke-linecap:square;stroke-linejoin:miter;stroke-width:0.8;"/>
   </g>
   <g id="patch_6">
    <path d="M 360 172.8 
L 2592 172.8 
" style="fill:none;stroke:#000000;stroke-linecap:square;stroke-linejoin:miter;stroke-width:0.8;"/>
   </g>
  </g>
 </g>
 <defs>
  <clipPath id="pc0be26f028">
   <rect height="1087.2" width="2232" x="360" y="172.8"/>
  </clipPath>
 </defs>
</svg>
